<?xml version="1.0" standalone="no"?>
<!DOCTYPE svg PUBLIC "-//W3C//DTD SVG 20010904//EN"
 "http://www.w3.org/TR/2001/REC-SVG-20010904/DTD/svg10.dtd">
<svg version="1.0" xmlns="http://www.w3.org/2000/svg"
 width="700.000000pt" height="700.000000pt" viewBox="0 0 700.000000 700.000000"
 preserveAspectRatio="xMidYMid meet">
<metadata>
Created by potrace 1.14, written by Peter Selinger 2001-2017
</metadata>
<g transform="translate(0.000000,700.000000) scale(0.100000,-0.100000)"
fill="#000000" stroke="none">
<path d="M3430 6407 c-25 -7 -117 -54 -205 -104 -179 -101 -613 -346 -690
-388 -27 -15 -84 -47 -125 -70 -41 -24 -91 -51 -110 -62 -19 -11 -273 -154
-565 -318 -291 -164 -550 -309 -575 -323 -186 -103 -224 -135 -264 -221 -20
-46 -20 -54 -21 -1421 l0 -1375 28 -57 c38 -78 88 -118 273 -221 88 -48 182
-100 209 -116 220 -124 318 -179 365 -204 30 -16 60 -33 65 -37 6 -4 33 -20
60 -35 165 -92 196 -109 340 -190 66 -37 140 -79 165 -93 25 -14 148 -83 274
-154 126 -71 257 -145 290 -163 34 -18 153 -86 266 -149 112 -64 216 -117 230
-117 14 -1 39 -2 55 -3 64 -4 121 19 307 126 106 60 222 126 258 145 80 44
851 477 900 505 19 12 55 32 80 46 549 306 942 530 970 552 51 40 90 100 104
161 9 41 12 388 11 1404 -1 1340 -1 1350 -22 1396 -37 83 -91 129 -243 211
-25 14 -211 118 -415 233 -203 114 -476 267 -605 340 -129 72 -257 144 -285
160 -27 16 -86 48 -130 73 -44 24 -98 55 -120 67 -22 12 -181 102 -353 199
-172 97 -325 182 -340 190 -40 20 -130 27 -182 13z m-615 -1841 c97 -25 221
-87 276 -139 85 -81 146 -192 164 -297 3 -19 9 -51 13 -70 15 -77 5 -204 -24
-295 -38 -117 -179 -352 -288 -480 -14 -16 -29 -35 -33 -40 -66 -87 -356 -386
-487 -502 l-58 -52 481 2 481 2 -2 -175 -3 -175 -242 2 c-133 1 -470 3 -748 4
l-505 2 0 149 0 148 98 99 c182 184 375 391 473 506 19 22 39 45 45 50 55 52
250 313 313 419 67 114 82 175 68 273 -20 141 -107 229 -238 240 -167 16 -311
-97 -355 -276 -10 -42 -22 -79 -26 -82 -5 -3 -63 -7 -131 -8 -67 -1 -162 -4
-211 -7 l-88 -4 7 58 c26 211 134 412 280 521 101 75 207 120 330 137 22 4 42
8 44 10 13 12 303 -4 366 -20z m1680 9 c78 -16 116 -29 190 -66 226 -109 381
-327 412 -579 5 -36 8 -265 7 -510 -1 -474 -4 -498 -54 -634 -69 -184 -263
-365 -460 -428 -86 -28 -98 -30 -210 -34 -167 -6 -307 33 -440 121 -144 95
-243 227 -300 395 -31 93 -34 142 -34 630 0 533 2 550 92 728 93 184 313 345
516 376 22 4 41 8 43 10 6 6 205 -2 238 -9z"/>
<path d="M4260 4153 c-89 -31 -157 -93 -196 -179 -16 -35 -18 -83 -19 -499 -2
-503 -1 -519 55 -600 60 -86 147 -130 255 -129 93 1 159 30 223 98 88 93 87
84 87 616 l0 465 -26 55 c-67 144 -238 222 -379 173z"/>
</g>
</svg>
